<svg id="Layer_1" data-name="Layer 1" xmlns="http://www.w3.org/2000/svg" viewBox="0 0 731.26 623.72"><defs><style>.cls-1{fill:#83be42;}</style></defs><path class="cls-1" d="M725.62,294.49c12.73-59.35,28-190.49-50.93-204C619.05,81,504.55,99.22,473.28,155.36c-23.78-8.63-48.95-15.91-73.28-15.86s-49.5,7.23-73.27,15.86C295.45,99.22,181,81,125.31,90.53,46.37,104,61.66,235.14,74.38,294.49c-61.66,75.32-34.9,184.23-30.25,282.14,5.2,109.22,64.23,143.48,169.15,133.62,58.18-5.48,116.19-32.44,116.34-96.29,0-18.12-.37-175.1-1.7-174.94,24-.16,48.06.08,72.08.5,24-.42,48.05-.66,72.08-.5-1.33-.16-1.74,156.82-1.7,174.94.14,63.85,58.16,90.81,116.34,96.29,104.92,9.86,164-24.4,169.15-133.62C760.52,478.72,787.28,369.81,725.62,294.49ZM584.54,156.63c25.05-6.68,51.09-10.95,77.06-10,20.77.78,17.39,63.57,12.3,105.17a1024.74,1024.74,0,0,0-144.71-74.25c5-2.3,13.15-7.24,15.79-8.36C557.74,163.87,571.2,160.18,584.54,156.63Zm-446.14-10c25.6-2.42,52.41,4,77.07,10A335.31,335.31,0,0,1,255,169.21c2.68,1,10.8,6,15.81,8.35a1024.94,1024.94,0,0,0-144.91,74.36C120.64,210.61,117.1,148.67,138.4,146.65ZM708.24,429.91c-3.63,57-1.62,120.57-12.9,176.48C683.85,663.3,627.44,662.6,577.75,651c-20.49-4.8-49.66-16.56-49.68-27.48q-.11-48.27-.22-96.52c-.12-52.4,16.06-128.56-45.22-143.59a29.44,29.44,0,0,0-10.55-2c-21.58-.13-46.48-1.89-72.08-3-25.6,1.07-50.5,2.83-72.08,3a29.3,29.3,0,0,0-10.54,2c-61.29,15-45.11,91.19-45.23,143.59q-.11,48.27-.21,96.52c0,10.92-29.2,22.68-49.69,27.48-49.69,11.64-106.1,12.34-117.59-44.57C93.38,550.48,95.39,487,91.76,429.91c-4.83-75.79,31.05-110.28,92.79-146A915.54,915.54,0,0,1,346,210.2,150.7,150.7,0,0,1,400,201.93a150.7,150.7,0,0,1,54.05,8.27,915.86,915.86,0,0,1,161.4,73.68C677.19,319.63,713.07,354.12,708.24,429.91Z" transform="translate(-34.37 -88.14)"/><path class="cls-1" d="M193.05,525.64a27.28,27.28,0,1,0,27.28,27.28A27.29,27.29,0,0,0,193.05,525.64Z" transform="translate(-34.37 -88.14)"/><path class="cls-1" d="M606.94,525.64a27.28,27.28,0,1,0,27.27,27.28A27.29,27.29,0,0,0,606.94,525.64Z" transform="translate(-34.37 -88.14)"/><path class="cls-1" d="M425,642.75c-.7,4.28-3.08,6-7.31,6.1-4.8.13-6.41-2.08-8.78-5.65a8.12,8.12,0,0,0-.85-.9c.28-8.46,1.12-16.8,1-25.19,6.29-2.94,11.17-8.62,17.5-14.38,10.53-9.57,8.57-23.26-26.57-24.63-35.14,1.37-37.09,15.06-26.56,24.63,6.69,6.08,11.73,12.13,18.57,14.9.29,8.64-1,17.38-1.26,26-2.32,3.46-3.76,4.9-8.45,5.2-4.22.26-6.66-2.1-7.31-6.1-1.79-11-18.46-6.31-16.68,4.6,1.82,11.17,11.45,17.45,21.93,18.74,8,1,14.35-1.9,19.49-6.67a21.66,21.66,0,0,0,3.84,3.18c4.57,2.93,10.92,3.63,16.19,3.49,10.45-.28,20.23-8.32,21.93-18.74C443.47,636.44,426.81,631.76,425,642.75Z" transform="translate(-34.37 -88.14)"/></svg>