<svg width="38" height="32" viewBox="0 0 38 32" fill="none" xmlns="http://www.w3.org/2000/svg">
<path d="M35.4646 10.587C36.1171 7.54148 36.9013 0.813959 32.8524 0.122865C29.9977 -0.364366 24.1231 0.568073 22.5172 3.4483C21.298 3.00593 20.0078 2.63227 18.7585 2.63511C17.5092 2.63795 16.219 3.00593 14.9992 3.45057C13.395 0.570344 7.52038 -0.362094 4.66401 0.125136C0.615683 0.813959 1.39991 7.53921 2.05239 10.587C-1.11063 14.4485 0.261901 20.0385 0.500973 25.0619C0.767303 30.665 3.7946 32.4232 9.17912 31.9172C12.1638 31.6361 15.1417 30.2528 15.148 26.9767C15.148 26.0471 15.1287 17.9925 15.0605 18.001C16.2928 17.9925 17.5256 18.0056 18.7585 18.0266C19.9913 18.0056 21.2236 17.9925 22.4564 18.001C22.3883 17.9925 22.3673 26.0471 22.369 26.9767C22.3769 30.2522 25.3531 31.6333 28.3378 31.9172C33.7212 32.4232 36.7497 30.6679 37.016 25.0619C37.2545 20.0385 38.6282 14.4507 35.4646 10.587ZM28.226 3.51417C29.5116 3.17345 30.8472 2.95198 32.18 3.00309C33.2453 3.04284 33.0721 6.26435 32.8109 8.39783C30.4411 6.9326 27.9585 5.65808 25.3866 4.5863C25.6444 4.46819 26.0613 4.21492 26.197 4.15756C26.8512 3.88555 27.5417 3.69589 28.226 3.51417ZM5.33693 3.00309C6.65041 2.87873 8.02635 3.20695 9.29099 3.51417C9.97981 3.68709 10.6573 3.90254 11.3194 4.15927C11.4574 4.21151 11.8737 4.46762 12.1309 4.58744C9.55546 5.6601 7.06945 6.93596 4.69638 8.40294C4.42607 6.28309 4.24436 3.1053 5.33693 3.00195V3.00309ZM34.5725 17.5337C34.3868 20.4599 34.4895 23.7195 33.9109 26.5883C33.3214 29.5077 30.4276 29.472 27.8779 28.8746C26.8267 28.6287 25.3298 28.0228 25.3287 27.4651C25.3253 25.8138 25.3217 24.163 25.3179 22.5127C25.3117 19.825 26.1408 15.9175 22.9976 15.1486C22.825 15.0814 22.6416 15.0464 22.4564 15.0453C21.3497 15.0385 20.0714 14.9482 18.7585 14.8931C17.445 14.9499 16.1673 15.0385 15.0605 15.0453C14.8753 15.0464 14.6919 15.0814 14.5193 15.1486C11.3762 15.9175 12.2053 19.825 12.199 22.5133C12.1956 24.1639 12.192 25.8147 12.1883 27.4657C12.1883 28.0256 10.6902 28.6292 9.6391 28.8751C7.08937 29.4725 4.19552 29.5083 3.60607 26.5889C3.02855 23.72 3.1302 20.4605 2.94451 17.5337C2.69635 13.6455 4.53738 11.876 7.70494 10.0412C10.3363 8.51624 13.1095 7.25039 15.9856 6.26151C16.8762 5.95185 17.816 5.80751 18.7585 5.83561C19.7009 5.80696 20.6406 5.95072 21.5314 6.25981C24.4074 7.24868 27.1807 8.51453 29.812 10.0395C32.9796 11.8766 34.8206 13.6461 34.5725 17.5337Z" fill="white"/>
<path d="M8.13936 22.4457C7.86251 22.4457 7.59187 22.5278 7.36168 22.6816C7.13148 22.8354 6.95207 23.054 6.84612 23.3098C6.74017 23.5656 6.71245 23.847 6.76646 24.1186C6.82047 24.3901 6.95379 24.6395 7.14956 24.8353C7.34532 25.031 7.59474 25.1644 7.86627 25.2184C8.13781 25.2724 8.41926 25.2447 8.67504 25.1387C8.93082 25.0328 9.14943 24.8534 9.30325 24.6232C9.45706 24.393 9.53915 24.1223 9.53915 23.8455C9.53915 23.4742 9.39167 23.1182 9.12916 22.8557C8.86665 22.5932 8.51061 22.4457 8.13936 22.4457Z" fill="white"/>
<path d="M29.3776 22.4457C29.1007 22.4456 28.83 22.5276 28.5998 22.6813C28.3695 22.8351 28.19 23.0536 28.084 23.3094C27.9779 23.5652 27.9501 23.8466 28.0041 24.1182C28.058 24.3898 28.1913 24.6393 28.387 24.8351C28.5828 25.0309 28.8322 25.1643 29.1037 25.2183C29.3753 25.2724 29.6568 25.2447 29.9126 25.1388C30.1684 25.0328 30.3871 24.8534 30.5409 24.6232C30.6947 24.393 30.7768 24.1223 30.7768 23.8455C30.7767 23.4744 30.6292 23.1185 30.3669 22.856C30.1045 22.5936 29.7487 22.446 29.3776 22.4457Z" fill="white"/>
<path d="M20.0413 28.4538C20.0055 28.6735 19.8834 28.7615 19.6671 28.7672C19.42 28.7735 19.3377 28.6605 19.2162 28.477C19.2026 28.4608 19.188 28.4454 19.1725 28.431C19.1867 27.9972 19.2292 27.569 19.2236 27.1386C19.5467 26.9875 19.7965 26.6962 20.1214 26.4003C20.662 25.9091 20.5609 25.2078 18.7585 25.1368C16.9561 25.2067 16.8556 25.9091 17.3956 26.4003C17.7392 26.7121 17.9975 27.025 18.3485 27.1647C18.3632 27.6082 18.2991 28.0562 18.2843 28.4998C18.1651 28.6769 18.0912 28.7507 17.8499 28.7666C17.6341 28.7797 17.5092 28.6588 17.4757 28.4532C17.3837 27.8893 16.5285 28.1301 16.6193 28.6894C16.713 29.2624 17.2071 29.5849 17.7448 29.6514C18.1554 29.7014 18.4831 29.5537 18.7449 29.3107C18.8041 29.3722 18.87 29.4268 18.9413 29.4736C19.1764 29.6241 19.5018 29.6599 19.7721 29.6531C20.3082 29.6383 20.8102 29.2261 20.8971 28.6911C20.9885 28.1306 20.1339 27.8899 20.0413 28.4538Z" fill="white"/>
</svg>
