<svg id="Layer_1" data-name="Layer 1" xmlns="http://www.w3.org/2000/svg" viewBox="0 0 660.66 721.53"><defs><style>.cls-1{fill:#83be42;}.cls-2{fill:#231f20;}</style></defs><path class="cls-1" d="M694.19,225.67c11.49-53.63,25.3-172.1-46-184.27-50.27-8.58-153.72,7.84-182,58.56C444.72,92.17,422,85.59,400,85.64S355.28,92.17,333.8,100c-28.25-50.72-131.7-67.14-182-58.56C80.51,53.57,94.32,172,105.81,225.67c-55.7,68-31.53,166.44-27.32,254.9,4.69,98.67,58,129.63,152.82,120.72,52.56-4.95,105-29.31,105.11-87,0-16.37-.34-158.21-1.54-158.06,21.7-.15,43.41.08,65.12.45,21.71-.37,43.41-.6,65.12-.45-1.2-.15-1.57,141.69-1.54,158.06.14,57.68,52.55,82,105.11,87,94.8,8.91,148.13-22,152.82-120.72C725.71,392.11,749.9,293.71,694.19,225.67ZM566.72,101.12c22.64-6,46.16-9.9,69.63-9,18.76.7,15.71,57.43,11.11,95A925.84,925.84,0,0,0,516.72,120c4.54-2.08,11.88-6.54,14.27-7.55C542.51,107.66,554.67,104.32,566.72,101.12Zm-403.07-9c23.13-2.19,47.36,3.59,69.63,9A302.71,302.71,0,0,1,269,112.48c2.43.92,9.76,5.43,14.29,7.54a926.3,926.3,0,0,0-130.92,67.19C147.61,149.88,144.41,93.92,163.65,92.1ZM678.48,348c-3.27,51.53-1.46,108.93-11.65,159.45-10.38,51.41-61.34,50.78-106.24,40.26-18.51-4.33-44.87-15-44.89-24.82q-.09-43.62-.19-87.21C515.4,388.35,530,319.54,474.65,306a26.68,26.68,0,0,0-9.53-1.82c-19.49-.12-42-1.71-65.12-2.68-23.13,1-45.63,2.56-65.12,2.68a26.68,26.68,0,0,0-9.53,1.82C270,319.54,284.6,388.35,284.49,435.69q-.09,43.6-.19,87.21c0,9.86-26.38,20.49-44.89,24.82-44.9,10.52-95.86,11.15-106.24-40.26C123,456.94,124.79,399.54,121.52,348c-4.37-68.47,28.05-99.63,83.83-131.94a827.2,827.2,0,0,1,145.82-66.56A136.32,136.32,0,0,1,400,142a136.32,136.32,0,0,1,48.83,7.47,827.2,827.2,0,0,1,145.82,66.56C650.43,248.38,682.85,279.54,678.48,348Z" transform="translate(-69.67 -39.23)"/><path class="cls-1" d="M213,434.5a24.65,24.65,0,1,0,24.65,24.65A24.65,24.65,0,0,0,213,434.5Z" transform="translate(-69.67 -39.23)"/><path class="cls-1" d="M587,434.5a24.65,24.65,0,1,0,24.64,24.65A24.66,24.66,0,0,0,587,434.5Z" transform="translate(-69.67 -39.23)"/><path class="cls-1" d="M422.59,540.3c-.63,3.87-2.78,5.42-6.59,5.52-4.35.11-5.8-1.88-7.94-5.11a8.51,8.51,0,0,0-.77-.81c.25-7.64,1-15.18.9-22.76,5.69-2.66,10.09-7.79,15.81-13,9.52-8.65,7.74-21-24-22.25-31.74,1.23-33.51,13.6-24,22.25,6.05,5.49,10.6,11,16.78,13.46.26,7.81-.87,15.7-1.13,23.51-2.1,3.12-3.4,4.42-7.65,4.7-3.8.23-6-1.9-6.59-5.52-1.62-9.93-16.68-5.69-15.08,4.16,1.65,10.09,10.35,15.77,19.82,16.94,7.23.88,13-1.72,17.61-6a20.15,20.15,0,0,0,3.46,2.87c4.14,2.65,9.87,3.28,14.63,3.16,9.44-.26,18.28-7.52,19.81-16.94C439.27,534.61,424.22,530.37,422.59,540.3Z" transform="translate(-69.67 -39.23)"/><path class="cls-2" d="M69.67,759.84V650h44.69a27.23,27.23,0,0,1,12.37,2.86,31.72,31.72,0,0,1,9.83,7.57A36.13,36.13,0,0,1,143,671.15a33.09,33.09,0,0,1,2.32,12.14,36.83,36.83,0,0,1-2.16,12.52A34.18,34.18,0,0,1,137,706.48a30.16,30.16,0,0,1-9.44,7.43,26.49,26.49,0,0,1-12.13,2.78H72.76v43.15Zm3.09-46.24h42.69A23.85,23.85,0,0,0,126.66,711a25.72,25.72,0,0,0,8.43-7,32.92,32.92,0,0,0,5.25-9.74,33.59,33.59,0,0,0,1.86-11A30,30,0,0,0,140,672a31.58,31.58,0,0,0-5.95-9.59,30,30,0,0,0-8.89-6.73,23.89,23.89,0,0,0-10.83-2.55H72.76Z" transform="translate(-69.67 -39.23)"/><path class="cls-2" d="M237.46,756.75v3.09H165.4V650h70.67v3.09H168.49v49h59.23v3.1H168.49v51.5Z" transform="translate(-69.67 -39.23)"/><path class="cls-2" d="M335.51,653.13H293.45V759.84h-3.1V653.13H248.29V650h87.22Z" transform="translate(-69.67 -39.23)"/><path class="cls-2" d="M340.61,704.16a58.08,58.08,0,0,1,3.48-19.64A56.53,56.53,0,0,1,354.15,667a50.93,50.93,0,0,1,16.23-12.68,48.29,48.29,0,0,1,22-4.87q14.7,0,24.9,6.72a41.82,41.82,0,0,1,15.16,17.25l-2.94.93a42.44,42.44,0,0,0-7.5-10.21,37.53,37.53,0,0,0-9.28-6.73,43,43,0,0,0-10.36-3.71,50,50,0,0,0-10.6-1.16,44.4,44.4,0,0,0-20.41,4.56,47.7,47.7,0,0,0-15.16,12,52,52,0,0,0-9.35,16.78,58.06,58.06,0,0,0-3.17,18.79,54.3,54.3,0,0,0,3.78,20.1,55.93,55.93,0,0,0,10.37,16.94,50,50,0,0,0,15.38,11.67,42.54,42.54,0,0,0,19,4.33,46.91,46.91,0,0,0,11.13-1.39,49.25,49.25,0,0,0,11.06-4.17,42.78,42.78,0,0,0,9.9-7.2,42.17,42.17,0,0,0,7.81-10.43l2.94.77a37,37,0,0,1-7.58,11,47.53,47.53,0,0,1-10.67,8,50.59,50.59,0,0,1-12.45,4.87,53.35,53.35,0,0,1-12.76,1.63,43.61,43.61,0,0,1-20.57-4.95,53.2,53.2,0,0,1-16.16-12.92,60.81,60.81,0,0,1-10.52-18.09A58.38,58.38,0,0,1,340.61,704.16Z" transform="translate(-69.67 -39.23)"/><path class="cls-2" d="M490.16,650h2.78l47.79,109.8h-3.4l-17.17-39.28H462.79l-17.17,39.28h-3.4Zm28.61,67.42-27.22-62.94L464,717.46Z" transform="translate(-69.67 -39.23)"/><path class="cls-2" d="M559,759.84V650h44.69A27.2,27.2,0,0,1,616,652.9a31.72,31.72,0,0,1,9.83,7.57,36.34,36.34,0,0,1,6.41,10.68,33.09,33.09,0,0,1,2.32,12.14,37.44,37.44,0,0,1-2,12.21,33.46,33.46,0,0,1-5.72,10.44,30,30,0,0,1-8.89,7.43,27.65,27.65,0,0,1-11.37,3.32l27.84,43.15h-3.71L602.9,716.69H562.07v43.15Zm3.09-46.24h42.68A23.4,23.4,0,0,0,615.89,711a27.37,27.37,0,0,0,8.43-6.88,30.89,30.89,0,0,0,5.33-9.67,34,34,0,0,0,1.86-11.13A30.18,30.18,0,0,0,629.35,672a31.61,31.61,0,0,0-6-9.59,30,30,0,0,0-8.89-6.73,23.89,23.89,0,0,0-10.83-2.55h-41.6Z" transform="translate(-69.67 -39.23)"/><path class="cls-2" d="M730.33,756.75v3.09H658.26V650h70.68v3.09H661.36v49h59.23v3.1H661.36v51.5Z" transform="translate(-69.67 -39.23)"/></svg>