<?xml version="1.0" standalone="no"?>
<!DOCTYPE svg PUBLIC "-//W3C//DTD SVG 20010904//EN"
 "http://www.w3.org/TR/2001/REC-SVG-20010904/DTD/svg10.dtd">
<svg version="1.0" xmlns="http://www.w3.org/2000/svg"
 width="218.000000pt" height="215.000000pt" viewBox="0 0 218.000000 215.000000"
 preserveAspectRatio="xMidYMid meet">

<g transform="translate(0.000000,215.000000) scale(0.100000,-0.100000)"
fill="#000000" stroke="none">
<path d="M316 1829 l-26 -20 0 -284 0 -284 26 -20 c35 -27 59 -26 89 4 25 24
25 27 25 195 0 93 3 170 7 170 4 0 186 -178 403 -395 288 -287 402 -395 418
-395 13 0 34 11 47 25 53 52 58 46 -372 477 l-398 398 173 0 c170 0 173 0 197
25 32 31 32 69 0 100 l-24 25 -269 0 c-257 0 -270 -1 -296 -21z"/>
<path d="M1168 1630 c-62 -48 -20 -130 66 -130 125 -1 260 -62 362 -164 173
-173 213 -420 103 -639 -42 -82 -154 -194 -236 -236 -289 -145 -639 -18 -763
276 -17 40 -33 105 -40 158 -7 52 -19 97 -28 108 -24 27 -77 22 -102 -10 -19
-25 -21 -35 -15 -98 18 -176 80 -310 200 -431 120 -121 240 -181 411 -205 207
-29 426 49 579 206 328 336 231 903 -190 1109 -80 40 -161 62 -255 72 -57 5
-68 4 -92 -16z"/>
</g>
</svg>
