<?xml version="1.0" standalone="no"?>
<!DOCTYPE svg PUBLIC "-//W3C//DTD SVG 20010904//EN"
 "http://www.w3.org/TR/2001/REC-SVG-20010904/DTD/svg10.dtd">
<svg version="1.0" xmlns="http://www.w3.org/2000/svg"
 width="294.000000pt" height="227.000000pt" viewBox="0 0 294.000000 227.000000"
 preserveAspectRatio="xMidYMid meet">

<g transform="translate(0.000000,227.000000) scale(0.100000,-0.100000)"
fill="#000000" stroke="none">
<path d="M1617 1987 c-14 -9 -27 -69 -57 -252 -22 -132 -42 -250 -45 -262 l-5
-23 -333 0 c-312 0 -334 1 -364 20 -34 21 -56 56 -68 107 -13 64 -82 89 -125
47 -21 -21 -16 -91 10 -152 25 -57 103 -137 144 -148 l26 -6 0 -367 c0 -237 4
-380 11 -406 15 -55 82 -120 139 -135 57 -15 151 -7 191 17 18 10 46 35 63 56
31 39 31 39 34 181 l3 142 130 0 129 0 0 -111 c0 -139 11 -179 64 -231 49 -50
107 -68 188 -61 68 6 109 28 152 80 l31 39 6 361 c3 199 6 363 7 365 1 1 41 2
89 2 121 0 192 22 254 78 79 71 93 106 97 247 3 106 1 124 -17 152 -32 50 -64
66 -149 71 -73 4 -79 6 -117 43 -22 21 -53 43 -68 48 -16 6 -88 11 -161 11
l-133 0 -28 41 c-40 57 -67 70 -98 46z m406 -274 c53 -47 95 -63 168 -63 l61
0 -3 -79 c-7 -134 -52 -171 -212 -171 -111 0 -149 -12 -194 -60 l-31 -33 -79
48 c-43 27 -80 50 -82 51 -3 3 46 306 54 334 4 13 27 15 142 12 l137 -3 39
-36z m-348 -490 l125 -78 0 -285 c0 -209 -3 -289 -12 -298 -7 -7 -36 -12 -64
-12 -78 0 -84 13 -84 180 0 114 -3 139 -19 163 -37 57 -49 61 -240 62 -195 2
-214 -2 -253 -57 -21 -30 -23 -45 -26 -178 -2 -80 -9 -151 -14 -157 -6 -8 -33
-13 -64 -13 -87 0 -84 -13 -84 397 l0 353 305 0 304 0 126 -77z"/>
<path d="M1917 1682 c-22 -25 -21 -45 3 -67 17 -15 24 -16 45 -7 44 20 27 92
-23 92 -5 0 -16 -8 -25 -18z"/>
</g>
</svg>
