<?xml version="1.0" standalone="no"?>
<!DOCTYPE svg PUBLIC "-//W3C//DTD SVG 20010904//EN"
 "http://www.w3.org/TR/2001/REC-SVG-20010904/DTD/svg10.dtd">
<svg version="1.0" xmlns="http://www.w3.org/2000/svg"
 width="272.000000pt" height="239.000000pt" viewBox="0 0 272.000000 239.000000"
 preserveAspectRatio="xMidYMid meet">

<g transform="translate(0.000000,239.000000) scale(0.100000,-0.100000)"
fill="#000000" stroke="none">
<path d="M1370 2033 c-40 -27 -813 -682 -838 -711 -28 -30 -24 -77 9 -105 31
-25 51 -21 110 23 l54 40 5 -322 c5 -313 6 -324 28 -371 13 -26 40 -61 60 -77
72 -60 89 -61 634 -58 482 3 494 3 533 24 54 29 94 70 116 119 17 36 19 71 19
363 0 177 3 322 8 322 4 0 23 -13 42 -28 69 -57 94 -63 128 -32 37 34 29 79
-20 127 -41 38 -741 633 -802 681 -34 26 -53 28 -86 5z m324 -394 l265 -224 0
-378 1 -379 -29 -29 c-29 -28 -32 -29 -130 -29 l-101 0 0 260 0 260 -34 38
-34 37 -209 3 c-321 4 -313 13 -313 -350 l0 -248 -95 0 c-90 0 -96 1 -127 29
l-33 29 -3 374 -3 373 273 232 c170 145 279 231 290 229 9 -2 136 -104 282
-227z m-134 -814 l0 -225 -155 0 -155 0 0 225 0 225 155 0 155 0 0 -225z"/>
</g>
</svg>
